<svg width="60" height="45" viewBox="0 0 60 45" xmlns="http://www.w3.org/2000/svg"><title>5BE1B1E0-269D-4F88-8A59-A69EA8E759C6</title><g fill="#56E0EA" fill-rule="evenodd"><path d="M3.277 44.513c-1.56 0-2.755-1.197-2.755-2.755V3.548C.522 1.99 1.717.794 3.277.794h53.446c1.56 0 2.755 1.197 2.755 2.756v38.294c0 1.473-1.19 2.67-2.755 2.67H3.277zm0-41.883c-.55 0-.919.369-.919.919v38.294c0 .55.369.919.919.919h53.446c.55 0 .919-.369.919-.919V3.55c0-.55-.369-.919-.919-.919H3.277z"/><path d="M44.513 38.447a.819.819 0 0 1-.642-.277L25.04 19.439 8.05 36.338a.887.887 0 0 1-1.287 0 .89.89 0 0 1 0-1.287l17.631-17.63a.887.887 0 0 1 1.287 0l19.467 19.467a.887.887 0 0 1 0 1.287.972.972 0 0 1-.635.272z"/><path d="M52.41 35.6a.819.819 0 0 1-.642-.276l-7.438-7.439-4.773 4.775a.887.887 0 0 1-1.287 0 .887.887 0 0 1 0-1.287l5.42-5.42a.888.888 0 0 1 1.286 0l8.084 8.084a.887.887 0 0 1 0 1.287c-.1.186-.379.277-.65.277zM41.48 15.216c-2.574 0-4.592-2.115-4.592-4.592 0-2.479 2.114-4.592 4.592-4.592 2.477 0 4.591 2.113 4.591 4.592 0 2.477-2.018 4.592-4.591 4.592zm0-7.347c-1.56 0-2.756 1.287-2.756 2.755 0 1.558 1.287 2.755 2.756 2.755 1.468 0 2.755-1.287 2.755-2.755 0-1.565-1.197-2.755-2.755-2.755z"/></g></svg>