<svg width="60" height="29" viewBox="0 0 60 29" xmlns="http://www.w3.org/2000/svg"><title>88919FF0-2041-4878-9ECD-69155E4CEA5C</title><path d="M56.95 7.287c1.612 0 2.883 1.354 3.05 2.882v7.882a2.858 2.858 0 0 1-2.882 2.883h-2.035c-.508 4.065-3.897 7.286-8.134 7.286H38.73c-1.528 0-2.966-.675-4.154-1.778-1.27-1.183-2.799-1.863-4.577-1.863s-3.39.675-4.577 1.863c-1.187 1.187-2.626 1.778-4.153 1.778h-8.219c-4.237 0-7.71-3.218-8.134-7.286H2.882A2.858 2.858 0 0 1 0 18.05V10.17a2.858 2.858 0 0 1 2.882-2.882h2.035C5.425 3.22 8.814 0 13.051 0h33.73c4.237 0 7.71 3.217 8.134 7.287h2.035zM1.951 18.13c0 .513.424.937.931 1.016h1.952V9.317H2.882a.94.94 0 0 0-.93.931v7.882zm55.93 0v-7.965a.94.94 0 0 0-.93-.933h-1.952v9.83h1.951a.94.94 0 0 0 .931-.932zm-11.1 8.14c3.474 0 6.272-2.799 6.104-6.188V8.218a6.26 6.26 0 0 0-6.272-6.272H12.884a6.26 6.26 0 0 0-6.272 6.272v11.78a6.26 6.26 0 0 0 6.272 6.272h8.218c1.02 0 2.035-.424 2.799-1.187 1.611-1.528 3.645-2.375 5.932-2.375 2.286 0 4.32.847 5.932 2.375.764.763 1.783 1.187 2.797 1.187h8.22z" fill="#56E0EA" fill-rule="evenodd"/></svg>