<?xml version="1.0" encoding="UTF-8" standalone="no"?>
<svg width="148px" height="23px" viewBox="0 0 148 23" version="1.1" xmlns="http://www.w3.org/2000/svg" xmlns:xlink="http://www.w3.org/1999/xlink">
    <!-- Generator: Sketch 41.2 (35397) - http://www.bohemiancoding.com/sketch -->
    <title>Group 3</title>
    <desc>Created with Sketch.</desc>
    <defs>
        <linearGradient x1="100%" y1="100%" x2="0%" y2="0%" id="linearGradient-1">
            <stop stop-color="#56E0EA" offset="0%"></stop>
            <stop stop-color="#53A0FE" offset="47.5247532%"></stop>
            <stop stop-color="#F229E8" offset="100%"></stop>
        </linearGradient>
    </defs>
    <g id="Page-1" stroke="none" stroke-width="1" fill="none" fill-rule="evenodd">
        <g id="Group-3">
            <g id="Group" fill="url(#linearGradient-1)">
                <path d="M25.8499358,19.8636364 L36.5407807,11.9533392 L32.1341781,0 L19.5656935,0.000549762147 L15.1590909,11.9533392 L25.8499358,19.8636364 Z M0,0 L8.36363636,22.4772727 L16.7272727,0 L0,0 Z M15.6818182,23 C17.7026783,23 19.3409091,21.3617692 19.3409091,19.3409091 C19.3409091,17.320049 17.7026783,15.6818182 15.6818182,15.6818182 C13.6609581,15.6818182 12.0227273,17.320049 12.0227273,19.3409091 C12.0227273,21.3617692 13.6609581,23 15.6818182,23 Z" id="Combined-Shape"></path>
            </g>
            <g id="Group-2" transform="translate(42.634146, 0.000000)" fill="#000000">
                <path d="M75.3131669,16.0329921 C75.3131669,15.2813687 75.6199474,14.9055626 76.2335175,14.9055626 C76.8624269,14.9055626 77.1768769,15.2813687 77.1768769,16.0329921 C77.1768769,16.7846155 76.8624269,17.1604216 76.2335175,17.1604216 C75.6199474,17.1604216 75.3131669,16.7846155 75.3131669,16.0329921 L75.3131669,16.0329921 Z M90.9016054,4.42507004 L90.9016054,5.21887244 L88.3131193,5.3799338 C89.0033857,6.238932 89.3485137,7.18228194 89.3485137,8.21001192 C89.3485137,9.41414333 88.9477817,10.3900887 88.1463057,11.1378773 C87.3448297,11.8856659 86.2691807,12.2595546 84.9193264,12.2595546 C84.351774,12.2595546 83.9529594,12.2365461 83.7228706,12.1905283 C83.2703626,12.4282867 82.9252346,12.7082239 82.6874762,13.0303482 C82.4497178,13.3524726 82.3308403,13.6937658 82.3308403,14.0542383 C82.3308403,14.4530589 82.4823132,14.7445003 82.7852634,14.9285714 C83.0882137,15.1126424 83.5963188,15.2046766 84.3095941,15.2046766 L86.4954268,15.2046766 C87.8529508,15.2046766 88.8921696,15.4788616 89.6131145,16.0272399 C90.3340594,16.5756182 90.6945265,17.3866691 90.6945265,18.4604168 C90.6945265,19.7795926 90.159578,20.7977203 89.0896651,21.5148304 C88.0197522,22.2319405 86.4954367,22.5904902 84.516673,22.5904902 C82.9443995,22.5904902 81.7268645,22.2875445 80.8640315,21.681644 C80.0011985,21.0757435 79.5697885,20.2320972 79.5697885,19.1506798 C79.5697885,18.2916816 79.836304,17.578417 80.3693431,17.0108646 C80.9023821,16.4433122 81.6252336,16.0560019 82.5379192,15.848922 C82.1621075,15.6878598 81.8610792,15.4596918 81.6348252,15.1644112 C81.4085712,14.8691306 81.2954459,14.5297547 81.2954459,14.1462734 C81.2954459,13.310284 81.8284769,12.5740109 82.8945551,11.9374319 C82.1659405,11.6383164 81.5983967,11.1685589 81.1919064,10.528145 C80.7854162,9.88773119 80.5821742,9.15337544 80.5821742,8.32505575 C80.5821742,7.07490659 80.9790714,6.07211793 81.7728778,5.31665969 C82.5666841,4.56120146 83.6384984,4.18347801 84.9883527,4.18347801 C85.8090028,4.18347801 86.4455722,4.26400788 86.8980802,4.42507004 L90.9016054,4.42507004 Z M80.7777487,19.0471404 C80.7777487,20.7651367 82.0547224,21.6241221 84.6087081,21.6241221 C87.8913083,21.6241221 89.5325838,20.5772337 89.5325838,18.4834256 C89.5325838,17.7318022 89.2756552,17.1872669 88.7617902,16.8498033 C88.2479252,16.5123397 87.4157832,16.3436104 86.2653392,16.3436104 L84.2175591,16.3436104 C81.9243407,16.3436104 80.7777487,17.2447781 80.7777487,19.0471404 L80.7777487,19.0471404 Z M81.7326124,8.32505575 C81.7326124,9.29142872 82.0259712,10.0411235 82.6126977,10.5741626 C83.1994241,11.1072016 83.9836317,11.3737171 84.9653439,11.3737171 C86.0084132,11.3737171 86.8079598,11.109119 87.3640077,10.5799147 C87.9200557,10.0507105 88.1980755,9.28375933 88.1980755,8.27903822 C88.1980755,7.2129601 87.9123861,6.4134135 87.340999,5.88037444 C86.7696118,5.34733538 85.9700652,5.08081985 84.9423352,5.08081985 C83.9452837,5.08081985 83.1610761,5.36650916 82.5896889,5.93789636 C82.0183017,6.50928355 81.7326124,7.30499539 81.7326124,8.32505575 L81.7326124,8.32505575 Z M101.514672,4.67816646 C102.17426,5.00796041 102.764813,5.57166952 103.286347,6.3693107 L103.355373,6.3693107 C103.309356,5.40293773 103.286347,4.45575304 103.286347,3.5277282 L103.286347,0 L104.413777,0 L104.413777,16.9807341 L103.665992,16.9807341 L103.378382,15.0206064 L103.286347,15.0206064 C102.335313,16.447157 100.97014,17.1604216 99.190787,17.1604216 C97.4651209,17.1604216 96.1459649,16.6235558 95.2332793,15.549808 C94.3205938,14.4760603 93.8642578,12.9114799 93.8642578,10.8560199 C93.8642578,8.69318518 94.316759,7.0404054 95.221775,5.89763102 C96.1267909,4.75485663 97.4421122,4.18347801 99.1677782,4.18347801 C100.072794,4.18347801 100.855084,4.34837251 101.514672,4.67816646 Z M99.1677782,5.21887244 C97.8025846,5.21887244 96.7767874,5.69821692 96.0903558,6.65692027 C95.4039243,7.61562362 95.0607136,9.00763999 95.0607136,10.8330112 C95.0607136,14.3763787 96.437391,16.1480359 99.190787,16.1480359 C100.601998,16.1480359 101.637382,15.7377171 102.29697,14.917067 C102.956558,14.0964169 103.286347,12.7427481 103.286347,10.8560199 L103.286347,10.6604454 C103.286347,8.72769948 102.96231,7.33760048 102.314227,6.49010672 C101.666143,5.64261296 100.617338,5.21887244 99.1677782,5.21887244 L99.1677782,5.21887244 Z" id=".gd"></path>
                <path d="M13.4634146,0.00245630968 L17.5786966,0.00245630968 L11.0442073,16.980732 L6.60022866,16.980732 L0.0788871951,0.00245630968 L4.19416921,0.00245630968 L7.80983232,10.1058078 C8.01143393,10.7019472 8.2196064,11.3967876 8.43435595,12.1903498 C8.64910549,12.983912 8.78277413,13.5355263 8.83536585,13.8452091 C8.93178402,13.1329386 9.26047738,11.886484 9.82145579,10.1058078 L13.4634146,0.00245630968 Z M33.3123095,16.980732 L22.2418064,16.980732 L22.2418064,0.00245630968 L33.3123095,0.00245630968 L33.3123095,2.95217041 L26.3176448,2.95217041 L26.3176448,6.6799587 L32.8258384,6.6799587 L32.8258384,9.62967281 L26.3176448,9.62967281 L26.3176448,14.0077918 L33.3123095,14.0077918 L33.3123095,16.980732 Z M43.6421494,7.53932423 L44.956936,7.53932423 C46.2454333,7.53932423 47.1964527,7.34964635 47.8100229,6.9702849 C48.423593,6.59092344 48.7303735,5.99479296 48.7303735,5.18187556 C48.7303735,4.37670023 48.4170191,3.80379561 47.7903011,3.46314451 C47.163583,3.12249341 46.1928419,2.95217041 44.8780488,2.95217041 L43.6421494,2.95217041 L43.6421494,7.53932423 Z M43.6421494,10.4658122 L43.6421494,16.980732 L39.566311,16.980732 L39.566311,0.00245630968 L45.1673018,0.00245630968 C47.7793576,0.00245630968 49.7120745,0.422457333 50.9655107,1.26247198 C52.2189468,2.10248663 52.8456555,3.3779736 52.8456555,5.08897118 C52.8456555,6.08769827 52.5344924,6.97608753 51.912157,7.75416561 C51.2898216,8.53224369 50.4089234,9.1419226 49.269436,9.58322062 C52.1619809,13.4000614 54.0464895,15.8658738 54.9230183,16.980732 L50.4001524,16.980732 L45.8115473,10.4658122 L43.6421494,10.4658122 Z M65.568407,6.99351099 L69.5785061,0 L73.9698933,0.00245630968 L67.5931784,10.3729079 L67.5931784,16.980732 L63.5436357,16.9782778 L63.5436357,10.4890383 L57.1669207,0.00245630968 L61.5846037,0.00245630968 L65.568407,6.99351099 Z" id="VERY"></path>
            </g>
        </g>
    </g>
</svg>