<?xml version="1.0" encoding="UTF-8" standalone="no"?>
<svg width="20px" height="20px" viewBox="0 0 20 20" version="1.1" xmlns="http://www.w3.org/2000/svg" xmlns:xlink="http://www.w3.org/1999/xlink">
    <!-- Generator: Sketch 42 (36781) - http://www.bohemiancoding.com/sketch -->
    <title>Page 1</title>
    <desc>Created with Sketch.</desc>
    <defs></defs>
    <g id="Symbols" stroke="none" stroke-width="1" fill="none" fill-rule="evenodd">
        <g id="Scene-Properties-/-Panel" transform="translate(-110.000000, -53.000000)" fill="#95959F" stroke="#95959F">
            <g id="Page-1">
                <path d="M120,54 C115.0368,54 111,58.0368 111,63 C111,67.9632 115.0368,72 120,72 C124.9632,72 129,67.9632 129,63 C129,58.0368 124.9632,54 120,54 Z M128.25,63 C128.25,64.41936 124.86192,66 120,66 C118.9932,66 118.0548,65.92968 117.19128,65.80872 C117.07032,64.9452 117,64.0068 117,63 C117,58.13808 118.58064,54.75 120,54.75 C124.54872,54.75 128.25,58.45128 128.25,63 Z M118.33032,54.92064 C117.08808,56.37096 116.25,59.40384 116.25,63 C116.25,63.9384 116.30712,64.83936 116.4132,65.6832 C113.55552,65.1516 111.75,64.03416 111.75,63 C111.75,59.0232 114.57936,55.69416 118.33032,54.92064 Z M111.92064,64.66968 C112.87224,65.48448 114.50256,66.12648 116.53128,66.46968 C116.8752,68.4984 117.51648,70.12776 118.33128,71.08032 C115.11936,70.41648 112.58352,67.88064 111.92064,64.66968 Z M120,71.25 C118.96584,71.25 117.8484,69.44448 117.3168,66.5868 C118.16064,66.69288 119.0616,66.75 120,66.75 C123.59616,66.75 126.62904,65.91192 128.07936,64.66968 C127.30584,68.42064 123.9768,71.25 120,71.25 Z"></path>
            </g>
        </g>
    </g>
</svg>