<svg width="60" height="45" viewBox="0 0 60 45" xmlns="http://www.w3.org/2000/svg" xmlns:xlink="http://www.w3.org/1999/xlink"><title>F86AF76E-A8D0-4A3E-8F54-0E2F9C2DC07C</title><defs><path d="M29.78.441c4.57 0 9.134 1.73 12.614 5.211 3.671 3.67 5.322 8.565 5.129 13.38 6.69.287 12.036 5.753 12.036 12.512 0 6.942-5.632 12.574-12.574 12.574H14.56C6.535 44.118 0 37.583 0 29.558c0-7.224 5.301-13.186 12.222-14.31.607-3.508 2.216-6.89 4.922-9.596C20.63 2.168 25.21.442 29.78.442zm0 2.647c-3.899 0-7.797 1.468-10.775 4.446a15.129 15.129 0 0 0-4.343 8.996 1.324 1.324 0 0 1-1.2 1.159 11.9 11.9 0 0 0-10.815 11.87A11.892 11.892 0 0 0 14.56 41.47h32.426a9.876 9.876 0 0 0 9.927-9.927 9.876 9.876 0 0 0-9.927-9.926H46.2a1.323 1.323 0 0 1-1.323-1.49c.538-4.477-.9-9.15-4.342-12.594-2.98-2.978-6.856-4.446-10.755-4.446z" id="a"/><mask id="b" x="0" y="0" width="59.559" height="43.676" fill="#fff"><use xlink:href="#a"/></mask></defs><g fill="#56E0EA" fill-rule="evenodd"><path d="M30 15.5L23 23l1.5 1 4.5-4.5V35h2V19.5l4.5 4.5 1.5-1z"/><use stroke="#2B2C3F" mask="url(#b)" stroke-width=".8" xlink:href="#a"/></g></svg>